<svg width="398" height="108" viewBox="0 0 398 108" fill="none" xmlns="http://www.w3.org/2000/svg">
<path d="M50.6669 4.28003C53.2775 3.42403 55.9602 5.35203 55.9602 8.09603V73.712C55.9602 73.712 55.3516 90.664 32.3124 97.328C32.3124 97.328 16.945 101.864 8.74474 104.048C6.20619 104.728 3.71569 102.832 3.68366 100.216C3.56354 89.84 4.11609 65.224 11.0911 45.24C11.0991 45.24 21.3895 13.864 50.6669 4.28003Z" fill="#2064B3"/>
<path d="M66.9233 40.736C66.4508 40.736 66.0664 40.352 66.0664 39.88V8.28804C66.076 8.06742 66.1704 7.859 66.3301 7.70626C66.4897 7.55352 66.7022 7.46826 66.9233 7.46826C67.1443 7.46826 67.3568 7.55352 67.5165 7.70626C67.6761 7.859 67.7706 8.06742 67.7801 8.28804V39.88C67.7801 40.352 67.3957 40.736 66.9233 40.736Z" fill="#78C8EF"/>
<path d="M66.9233 78.568C66.4248 78.5659 65.9474 78.3672 65.5949 78.0151C65.2424 77.663 65.0435 77.186 65.0414 76.688V40.128C65.0435 39.6301 65.2424 39.1531 65.5949 38.801C65.9474 38.4489 66.4248 38.2502 66.9233 38.248C67.4217 38.2502 67.8992 38.4489 68.2516 38.801C68.6041 39.1531 68.8031 39.6301 68.8052 40.128V76.688C68.8031 77.186 68.6041 77.663 68.2516 78.0151C67.8992 78.3672 67.4217 78.5659 66.9233 78.568Z" fill="#2064B3"/>
<path d="M73.0975 43.0719C72.625 43.0719 72.2406 42.688 72.2406 42.216V9.46395C72.2502 9.24333 72.3446 9.03491 72.5043 8.88217C72.6639 8.72943 72.8764 8.64417 73.0975 8.64417C73.3185 8.64417 73.531 8.72943 73.6907 8.88217C73.8503 9.03491 73.9448 9.24333 73.9543 9.46395V42.2239C73.9543 42.6879 73.5619 43.0719 73.0975 43.0719Z" fill="#78C8EF"/>
<path d="M73.0975 87.8C72.599 87.7979 72.1216 87.5991 71.7691 87.247C71.4166 86.8949 71.2177 86.4179 71.2156 85.92V37.36C71.2177 36.862 71.4166 36.3851 71.7691 36.0329C72.1216 35.6808 72.599 35.4821 73.0975 35.48C73.5959 35.4821 74.0734 35.6808 74.4258 36.0329C74.7783 36.3851 74.9772 36.862 74.9794 37.36V85.92C74.9794 86.96 74.1305 87.8 73.0975 87.8Z" fill="#2064B3"/>
<path d="M79.2636 46.192C78.7911 46.192 78.4067 45.808 78.4067 45.336V11.472C78.4163 11.2514 78.5107 11.043 78.6704 10.8902C78.83 10.7375 79.0425 10.6522 79.2636 10.6522C79.4847 10.6522 79.6972 10.7375 79.8568 10.8902C80.0165 11.043 80.1109 11.2514 80.1205 11.472V45.344C80.1205 45.808 79.7361 46.192 79.2636 46.192Z" fill="#78C8EF"/>
<path d="M79.2636 92.592C78.7652 92.5899 78.2877 92.3912 77.9352 92.039C77.5828 91.6869 77.3838 91.21 77.3817 90.712V32.848C77.3838 32.3501 77.5828 31.8731 77.9352 31.521C78.2877 31.1689 78.7652 30.9701 79.2636 30.968C79.7621 30.9701 80.2395 31.1689 80.592 31.521C80.9444 31.8731 81.1434 32.3501 81.1455 32.848V90.704C81.1466 90.9516 81.0987 91.1969 81.0046 91.4259C80.9104 91.6549 80.772 91.8631 80.5971 92.0386C80.4223 92.214 80.2145 92.3532 79.9856 92.4481C79.7568 92.5431 79.5114 92.592 79.2636 92.592Z" fill="#2064B3"/>
<path d="M85.4379 50.336C84.9654 50.336 84.5811 49.952 84.5811 49.48V15.144C84.5906 14.9234 84.6851 14.715 84.8447 14.5622C85.0043 14.4095 85.2169 14.3242 85.4379 14.3242C85.659 14.3242 85.8715 14.4095 86.0311 14.5622C86.1908 14.715 86.2852 14.9234 86.2948 15.144V49.472C86.2948 49.952 85.9104 50.336 85.4379 50.336Z" fill="#78C8EF"/>
<path d="M85.4379 95.672C84.9395 95.6699 84.462 95.4711 84.1096 95.119C83.7571 94.7669 83.5581 94.29 83.556 93.792V31.552C83.5581 31.054 83.7571 30.5771 84.1096 30.225C84.462 29.8729 84.9395 29.6741 85.4379 29.672C85.9364 29.6741 86.4138 29.8729 86.7663 30.225C87.1188 30.5771 87.3177 31.054 87.3198 31.552V93.792C87.3198 94.824 86.479 95.672 85.4379 95.672Z" fill="#2064B3"/>
<path d="M91.6121 53.9521C91.1396 53.9521 90.7552 53.5681 90.7552 53.0961V20.4961C90.7648 20.2754 90.8592 20.067 91.0189 19.9143C91.1785 19.7615 91.3911 19.6763 91.6121 19.6763C91.8332 19.6763 92.0457 19.7615 92.2053 19.9143C92.365 20.067 92.4594 20.2754 92.469 20.4961V53.0961C92.469 53.5681 92.0846 53.9521 91.6121 53.9521Z" fill="#78C8EF"/>
<path d="M91.6121 98.064C91.1137 98.0619 90.6362 97.8632 90.2837 97.511C89.9313 97.1589 89.7323 96.682 89.7302 96.184V35.656C89.7323 35.158 89.9313 34.6811 90.2837 34.329C90.6362 33.9769 91.1137 33.7781 91.6121 33.776C92.1106 33.7781 92.588 33.9769 92.9405 34.329C93.2929 34.6811 93.4919 35.158 93.494 35.656V96.176C93.494 97.216 92.6452 98.064 91.6121 98.064Z" fill="#2064B3"/>
<path d="M97.7863 59.552C97.3138 59.552 96.9294 59.168 96.9294 58.696V27.52C96.939 27.2994 97.0334 27.0909 97.1931 26.9382C97.3527 26.7855 97.5653 26.7002 97.7863 26.7002C98.0074 26.7002 98.2199 26.7855 98.3795 26.9382C98.5392 27.0909 98.6336 27.2994 98.6432 27.52V58.696C98.6432 59.168 98.2588 59.552 97.7863 59.552Z" fill="#78C8EF"/>
<path d="M97.7863 100.112C97.2878 100.11 96.8104 99.9111 96.4579 99.559C96.1055 99.2069 95.9065 98.7299 95.9044 98.232V43.856C95.9065 43.358 96.1055 42.881 96.4579 42.5289C96.8104 42.1768 97.2878 41.9781 97.7863 41.976C98.2848 41.9781 98.7622 42.1768 99.1147 42.5289C99.4671 42.881 99.6661 43.358 99.6682 43.856V98.232C99.6661 98.7299 99.4671 99.2069 99.1147 99.559C98.7622 99.9111 98.2848 100.11 97.7863 100.112Z" fill="#2064B3"/>
<path d="M103.961 68.096C103.488 68.096 103.104 67.712 103.104 67.24V36.552C103.113 36.3313 103.208 36.1229 103.367 35.9702C103.527 35.8174 103.739 35.7322 103.961 35.7322C104.182 35.7322 104.394 35.8174 104.554 35.9702C104.713 36.1229 104.808 36.3313 104.817 36.552V67.24C104.817 67.712 104.433 68.096 103.961 68.096Z" fill="#78C8EF"/>
<path d="M103.961 101.824C103.462 101.822 102.985 101.623 102.632 101.271C102.28 100.919 102.081 100.442 102.079 99.944V58.224C102.081 57.726 102.28 57.2491 102.632 56.897C102.985 56.5448 103.462 56.3461 103.961 56.344C104.459 56.3461 104.936 56.5448 105.289 56.897C105.641 57.2491 105.84 57.726 105.842 58.224V99.944C105.84 100.442 105.641 100.919 105.289 101.271C104.936 101.623 104.459 101.822 103.961 101.824Z" fill="#2064B3"/>
<path d="M110.135 74.496C109.662 74.496 109.278 74.112 109.278 73.64V50.264C109.287 50.0434 109.382 49.835 109.541 49.6822C109.701 49.5295 109.914 49.4442 110.135 49.4442C110.356 49.4442 110.568 49.5295 110.728 49.6822C110.888 49.835 110.982 50.0434 110.992 50.264V73.64C110.992 74.112 110.599 74.496 110.135 74.496Z" fill="#78C8EF"/>
<path d="M110.135 103.944C109.636 103.942 109.159 103.743 108.806 103.391C108.454 103.039 108.255 102.562 108.253 102.064V73.272C108.255 72.774 108.454 72.297 108.806 71.9449C109.159 71.5928 109.636 71.3941 110.135 71.392C110.633 71.3941 111.111 71.5928 111.463 71.9449C111.816 72.297 112.014 72.774 112.017 73.272V102.064C112.014 102.562 111.816 103.039 111.463 103.391C111.111 103.743 110.633 103.942 110.135 103.944Z" fill="#2064B3"/>
<path d="M116.309 90.8799C115.836 90.8799 115.452 90.496 115.452 90.024V73.344C115.462 73.1233 115.556 72.9149 115.716 72.7622C115.875 72.6094 116.088 72.5242 116.309 72.5242C116.53 72.5242 116.742 72.6094 116.902 72.7622C117.062 72.9149 117.156 73.1233 117.166 73.344V90.032C117.158 90.496 116.773 90.8799 116.309 90.8799Z" fill="#78C8EF"/>
<path d="M116.309 104.328C115.81 104.326 115.333 104.127 114.981 103.775C114.628 103.423 114.429 102.946 114.427 102.448V90.712C114.429 90.2141 114.628 89.7371 114.981 89.385C115.333 89.0329 115.81 88.8341 116.309 88.832C116.807 88.8341 117.285 89.0329 117.637 89.385C117.99 89.7371 118.189 90.2141 118.191 90.712V102.448C118.189 102.946 117.99 103.423 117.637 103.775C117.285 104.127 116.807 104.326 116.309 104.328Z" fill="#2064B3"/>
<path d="M66.8672 7.608C67.9552 7.608 68.8372 6.72689 68.8372 5.64C68.8372 4.5531 67.9552 3.672 66.8672 3.672C65.7792 3.672 64.8972 4.5531 64.8972 5.64C64.8972 6.72689 65.7792 7.608 66.8672 7.608Z" stroke="#78C8EF" stroke-width="1.8168" stroke-miterlimit="10"/>
<path d="M73.0335 9.264C74.1214 9.264 75.0034 8.3829 75.0034 7.296C75.0034 6.20911 74.1214 5.328 73.0335 5.328C71.9455 5.328 71.0635 6.20911 71.0635 7.296C71.0635 8.3829 71.9455 9.264 73.0335 9.264Z" stroke="#78C8EF" stroke-width="1.8168" stroke-miterlimit="10"/>
<path d="M79.1996 11.208C80.2876 11.208 81.1696 10.3269 81.1696 9.23997C81.1696 8.15308 80.2876 7.27197 79.1996 7.27197C78.1116 7.27197 77.2296 8.15308 77.2296 9.23997C77.2296 10.3269 78.1116 11.208 79.1996 11.208Z" stroke="#78C8EF" stroke-width="1.8168" stroke-miterlimit="10"/>
<path d="M85.3738 14.992C86.4618 14.992 87.3438 14.1109 87.3438 13.024C87.3438 11.9371 86.4618 11.056 85.3738 11.056C84.2858 11.056 83.4038 11.9371 83.4038 13.024C83.4038 14.1109 84.2858 14.992 85.3738 14.992Z" stroke="#78C8EF" stroke-width="1.8168" stroke-miterlimit="10"/>
<path d="M91.54 20.36C92.628 20.36 93.51 19.4788 93.51 18.3919C93.51 17.3051 92.628 16.424 91.54 16.424C90.4521 16.424 89.5701 17.3051 89.5701 18.3919C89.5701 19.4788 90.4521 20.36 91.54 20.36Z" stroke="#78C8EF" stroke-width="1.8168" stroke-miterlimit="10"/>
<path d="M97.7062 27.312C98.7942 27.312 99.6762 26.4309 99.6762 25.344C99.6762 24.2571 98.7942 23.376 97.7062 23.376C96.6182 23.376 95.7362 24.2571 95.7362 25.344C95.7362 26.4309 96.6182 27.312 97.7062 27.312Z" stroke="#78C8EF" stroke-width="1.8168" stroke-miterlimit="10"/>
<path d="M103.88 36.08C104.968 36.08 105.85 35.1989 105.85 34.112C105.85 33.0251 104.968 32.144 103.88 32.144C102.792 32.144 101.91 33.0251 101.91 34.112C101.91 35.1989 102.792 36.08 103.88 36.08Z" stroke="#78C8EF" stroke-width="1.8168" stroke-miterlimit="10"/>
<path d="M110.047 50.112C111.135 50.112 112.017 49.2309 112.017 48.144C112.017 47.0571 111.135 46.176 110.047 46.176C108.959 46.176 108.077 47.0571 108.077 48.144C108.077 49.2309 108.959 50.112 110.047 50.112Z" stroke="#78C8EF" stroke-width="1.8168" stroke-miterlimit="10"/>
<path d="M116.213 72.9279C117.301 72.9279 118.183 72.0468 118.183 70.9599C118.183 69.873 117.301 68.9919 116.213 68.9919C115.125 68.9919 114.243 69.873 114.243 70.9599C114.243 72.0468 115.125 72.9279 116.213 72.9279Z" stroke="#78C8EF" stroke-width="1.8168" stroke-miterlimit="10"/>
<path d="M227.445 90.1281L214.007 64.6241C213.751 64.1441 213.254 63.8401 212.71 63.8401H204.806C203.997 63.8401 203.332 64.4961 203.332 65.3121V89.4401C203.332 90.2481 202.676 90.9121 201.859 90.9121H190.535C189.727 90.9121 189.062 90.2561 189.062 89.4401V33.5921C189.062 22.9281 193.37 17.9041 205.591 17.9041H217.699C232.578 17.9041 241.411 28.0561 241.411 41.2801C241.411 50.8161 235.997 57.8641 229.543 60.8721C228.766 61.2321 228.446 62.1681 228.862 62.9121L243.18 88.7281C243.725 89.7041 243.012 90.9121 241.891 90.9121H228.75C228.197 90.9121 227.701 90.6081 227.445 90.1281ZM216.77 30.6161H209.691C205.174 30.6161 203.324 33.3841 203.324 37.0721V50.4801C203.324 51.2881 203.981 51.9521 204.798 51.9521H216.77C223.032 51.9521 227.14 46.9281 227.14 41.2881C227.14 34.6161 223.032 30.6161 216.77 30.6161Z" fill="#122132"/>
<path d="M298.003 89.9521L294.52 79.2561C294.336 78.6881 293.799 78.2961 293.199 78.2961H270.696C270.087 78.2961 269.559 78.6881 269.375 79.2641L265.987 89.9361C265.803 90.5121 265.267 90.9041 264.666 90.9041H252.758C251.805 90.9041 251.132 89.9601 251.445 89.0561L274.18 24.1121L274.228 23.9921C276.374 19.1201 278.832 17.9041 282.308 17.9041C285.591 17.9041 287.953 18.8241 289.803 24.0561L312.562 89.0641C312.874 89.9681 312.21 90.9121 311.249 90.9121H299.333C298.724 90.9121 298.188 90.5201 298.003 89.9521ZM280.946 41.7281L273.835 64.4961C273.555 65.3921 274.228 66.2961 275.164 66.2961H289.066C289.995 66.2961 290.66 65.4001 290.396 64.5121L283.605 41.7441C283.213 40.4321 281.355 40.4241 280.946 41.7281Z" fill="#2064B3"/>
<path d="M372.566 90.9121C356.246 90.9121 349.271 85.0641 349.271 70.6081V22.8321C349.271 20.1201 351.489 17.9041 354.204 17.9041H362.02C362.861 17.9041 363.541 18.5841 363.541 19.4241V70.6081C363.541 76.4561 365.8 78.1921 372.574 78.1921H392.811C393.652 78.1921 394.332 78.8721 394.332 79.7121V89.3921C394.332 89.7952 394.172 90.1818 393.887 90.4669C393.601 90.7519 393.214 90.9121 392.811 90.9121H372.566Z" fill="#122132"/>
<path d="M334.72 91.304H324.118C323.261 91.304 322.836 90.848 322.828 89.936L323.149 24.184C323.149 20.336 325.063 18.408 328.899 18.408H335.041C336.01 18.408 336.49 18.864 336.498 19.776L336.178 89.936C336.178 90.848 335.689 91.304 334.72 91.304Z" fill="#2064B3"/>
<path d="M162.203 91.616C161.314 91.616 160.866 91.224 160.85 90.432L161.074 43.832C161.058 40.384 162.988 38.656 166.872 38.656H172.694C173.582 38.656 174.031 39.048 174.047 39.84L173.831 90.432C173.839 91.224 173.406 91.616 172.517 91.616H162.203ZM161.538 23.32C161.594 18.464 163.973 16.032 168.689 16.032C173.366 16.032 175.681 18.464 175.632 23.32C175.624 27.992 173.286 30.328 168.609 30.328C163.885 30.336 161.53 27.992 161.538 23.32Z" fill="#122132"/>
</svg>
